<svg fill="#00000" xmlns="http://www.w3.org/2000/svg"  viewBox="0 0 32 32" width="512px" height="512px" >
<path  d="M21.387 8.462H28.293V10.144H21.387zM9.703 6.765c5.707 0 5.902 3.172 5.902 4.572 0 2.513-1.682 3.456-2.517 3.851 1.137.327 3.372 1.43 3.372 4.685 0 5.208-5.685 5.363-6.512 5.363h-8.95V6.765H9.703zM9.177 14.227c.72 0 2.484-.218 2.484-2.198 0-2.315-2.434-2.118-2.794-2.118H5.063v4.316H9.177zM9.402 22.089c.401 0 3.002 0 3.002-2.442 0-2.521-2.045-2.644-2.92-2.644h-4.42v5.086H9.402zM25.111 22.147c1.663 0 2.559-1.229 2.675-1.611h2.984c-.48 1.485-1.643 4.145-5.772 4.145-1.532 0-6.319-.65-6.319-6.481 0-1.964 1.098-6.527 6.319-6.527 4.67 0 6.165 3.959 5.985 7.335H22.08C22.08 19.983 22.321 22.147 25.111 22.147zM26.813 14.919c-.402-.446-1.085-.687-1.917-.687-.541 0-.989.091-1.348.277-.351.183-.638.411-.858.68-.219.273-.368.561-.454.869-.087.3-.139.573-.155.813h5.513C27.513 16.007 27.217 15.368 26.813 14.919z"/></svg>